<svg width="111" height="55" viewBox="0 0 111 55" fill="none" xmlns="http://www.w3.org/2000/svg">
<g clip-path="url(#clip0_1353_1722)">
<path d="M19.9369 45.2942V38.8236H7.00488V45.2942C7.00488 50.654 11.3479 55 16.7039 55H51.1894V45.2942H19.9369Z" fill="#134D80"/>
<path d="M49.0342 0V11.3555H54.4219V21.2285H49.0342V35.0488H37.7188V0H49.0342Z" fill="#134D80"/>
<path d="M22.6309 4.93359H33.9463V13.8203H29.4297C32.7217 18.6591 32.0406 25.5751 27.8037 29.9424C25.5407 32.2717 22.5452 33.7335 19.377 34.3105V34.3154C13.2558 35.4316 6.49268 33.2642 3.13574 27.7588C0.969784 24.2109 0.253513 19.493 2.13379 15.6377C2.45321 14.9828 2.82299 14.3785 3.23242 13.8203H0V4.93359H10.2861V0H22.6309V4.93359ZM15.4912 13.502L14.0293 13.7959C11.2555 14.5293 9.36222 18.2323 9.94141 21.4551C10.491 24.5124 12.8191 26.3141 15.3408 26.6592C16.9787 26.8856 18.7081 26.5294 20.0928 25.4512C21.4075 24.4267 22.3131 22.7605 22.5557 20.9326C22.7981 19.1049 22.324 17.0505 21.2305 15.6162C20.5946 14.7804 19.7695 14.1653 18.8535 13.8418C17.7651 13.459 16.6119 13.4642 15.4912 13.502Z" fill="#134D80"/>
<path d="M99.6846 2.69603H67.3545V11.3235H99.6846V2.69603Z" fill="#9ECCF3"/>
<path d="M102.917 25.8823H65.199V33.4313H102.917V25.8823Z" fill="#9ECCF3"/>
<path d="M65.1075 33.4313L63.1731 6.66466C63.103 4.49162 64.9674 2.69603 67.2951 2.69603H73.3786L75.4423 33.4313H65.1129H65.1075Z" fill="#9ECCF3"/>
<path d="M102.966 33.4313L104.944 6.67005C105.019 4.49701 103.149 2.69603 100.821 2.69603H94.2531L92.1462 33.4313H102.971H102.966Z" fill="#9ECCF3"/>
<path d="M89.9855 30.7353H77.5923V51.2255H89.9855V30.7353Z" fill="#9ECCF3"/>
<path d="M111 43.6764H57.6553V53.3823H111V43.6764Z" fill="#9ECCF3"/>
</g>
<defs>
<clipPath id="clip0_1353_1722">
<rect width="111" height="55" fill="white"/>
</clipPath>
</defs>
</svg>
