<svg width="133" height="157" viewBox="0 0 133 157" fill="none" xmlns="http://www.w3.org/2000/svg">
<g clip-path="url(#clip0_1279_1098)">
<path d="M51.0097 130H45.0042V137.997H51.0097V130Z" fill="#04447C"/>
<path d="M56.5146 132.422H40V136.784H56.5146V132.422Z" fill="#04447C"/>
<path d="M88.4952 131.323H72.7671V135.559H88.4952V131.323Z" fill="#9ECCF3"/>
<path d="M90.068 142.706H71.7185V146.412H90.068V142.706Z" fill="#9ECCF3"/>
<path d="M49.699 152.235V149.059H43.4077V152.235C43.4077 154.866 45.5205 157 48.1262 157H64.9029V152.235H49.699Z" fill="#04447C"/>
<path d="M66.4756 135.574H59.3979V140.421H66.4756V135.574Z" fill="#04447C"/>
<path d="M63.8545 130H58.3496V147.206H63.8545V130Z" fill="#04447C"/>
<path d="M71.6739 146.411L70.7329 133.271C70.6988 132.205 71.6058 131.323 72.7382 131.323H75.6977L76.7017 146.411H71.6766H71.6739Z" fill="#9ECCF3"/>
<path d="M90.0916 146.411L91.0536 133.274C91.0903 132.207 90.1807 131.323 89.0483 131.323H85.8528L84.8279 146.411H90.0942H90.0916Z" fill="#9ECCF3"/>
<path d="M49.4264 146.843C50.9678 146.56 52.4253 145.843 53.5263 144.699C56.0559 142.068 55.9798 137.552 52.9233 135.35C52.7634 135.236 52.5983 135.128 52.4305 135.03C52.3964 135.011 52.365 134.993 52.3309 134.974C51.07 134.27 49.6204 133.989 48.2075 133.973C45.4787 133.942 42.3802 134.9 41.0381 137.677C40.1232 139.569 40.4719 141.885 41.5257 143.627C43.1588 146.33 46.4486 147.394 49.4264 146.846V146.843Z" fill="#04447C"/>
<path d="M46.9572 136.742C45.5364 137.015 44.5455 138.899 44.8365 140.533C45.1039 142.034 46.2363 142.918 47.4631 143.087C48.26 143.198 49.1015 143.024 49.7751 142.494C50.4148 141.991 50.8551 141.173 50.9731 140.276C51.0911 139.379 50.8604 138.37 50.3283 137.666C50.0189 137.256 49.6179 136.954 49.1722 136.795C48.6427 136.607 48.0817 136.61 47.5365 136.628" fill="white"/>
<path d="M83.7767 145.088H77.7476V155.147H83.7767V145.088Z" fill="#9ECCF3"/>
<path d="M94 151.441H68.0486V156.206H94V151.441Z" fill="#9ECCF3"/>
</g>
<rect x="0.337158" width="132.326" height="102.714" rx="30" fill="#F7F7F7"/>
<path d="M91.9807 56.6723C96.3122 56.6723 99.8236 53.2521 99.8236 49.033C99.8236 44.8139 96.3122 41.3937 91.9807 41.3937C87.6491 41.3937 84.1377 44.8139 84.1377 49.033C84.1377 53.2521 87.6491 56.6723 91.9807 56.6723Z" fill="#3A3A3A"/>
<path d="M91.9808 56.8349C87.5654 56.8349 83.9709 53.3339 83.9709 49.0331C83.9709 44.7323 87.5654 41.2312 91.9808 41.2312C96.3962 41.2312 99.9906 44.7323 99.9906 49.0331C99.9906 53.3339 96.3962 56.8349 91.9808 56.8349ZM91.9808 41.5563C87.7489 41.5563 84.3047 44.9111 84.3047 49.0331C84.3047 53.1551 87.7489 56.5099 91.9808 56.5099C96.2127 56.5099 99.6569 53.1551 99.6569 49.0331C99.6569 44.9111 96.2127 41.5563 91.9808 41.5563Z" fill="#3A3A3A"/>
<path d="M91.685 36.7902L82.6232 41.6326C81.8152 42.0644 81.5191 43.0518 81.962 43.838C82.4048 44.6243 83.4188 44.9116 84.2268 44.4798L93.2887 39.6374C94.0967 39.2056 94.3927 38.2182 93.9499 37.432C93.507 36.6458 92.493 36.3584 91.685 36.7902Z" fill="#5E5E5E"/>
<path d="M94.3668 48.4314C95.3806 48.4314 96.2024 47.631 96.2024 46.6435C96.2024 45.6561 95.3806 44.8556 94.3668 44.8556C93.3531 44.8556 92.5312 45.6561 92.5312 46.6435C92.5312 47.631 93.3531 48.4314 94.3668 48.4314Z" fill="white"/>
<path d="M94.3668 48.5941C93.262 48.5941 92.3643 47.7197 92.3643 46.6436C92.3643 45.5676 93.262 44.6931 94.3668 44.6931C95.4715 44.6931 96.3693 45.5676 96.3693 46.6436C96.3693 47.7197 95.4715 48.5941 94.3668 48.5941ZM94.3668 45.0182C93.4456 45.0182 92.698 45.7464 92.698 46.6436C92.698 47.5409 93.4456 48.2691 94.3668 48.2691C95.2879 48.2691 96.0355 47.5409 96.0355 46.6436C96.0355 45.7464 95.2879 45.0182 94.3668 45.0182Z" fill="#3A3A3A"/>
<path d="M45.7982 47.7392C46.812 47.7392 47.6338 46.9387 47.6338 45.9513C47.6338 44.9638 46.812 44.1633 45.7982 44.1633C44.7845 44.1633 43.9626 44.9638 43.9626 45.9513C43.9626 46.9387 44.7845 47.7392 45.7982 47.7392Z" fill="white"/>
<path d="M45.7984 47.9018C44.6937 47.9018 43.7959 47.0273 43.7959 45.9512C43.7959 44.8752 44.6937 44.0007 45.7984 44.0007C46.9031 44.0007 47.8009 44.8752 47.8009 45.9512C47.8009 47.0273 46.9031 47.9018 45.7984 47.9018ZM45.7984 44.3258C44.8773 44.3258 44.1296 45.054 44.1296 45.9512C44.1296 46.8485 44.8773 47.5767 45.7984 47.5767C46.7196 47.5767 47.4672 46.8485 47.4672 45.9512C47.4672 45.054 46.7196 44.3258 45.7984 44.3258Z" fill="#3A3A3A"/>
<path d="M67.3978 63.0109C64.0436 63.0109 61.2235 61.6033 59.755 60.4038C59.0475 59.8284 58.954 58.8011 59.5481 58.1152C60.1388 57.4293 61.1868 57.3383 61.8943 57.9072C62.1113 58.0827 67.1775 62.0292 72.8378 57.8617C73.572 57.3188 74.62 57.4618 75.174 58.177C75.7313 58.8922 75.5845 59.9129 74.8502 60.4525C72.2938 62.3347 69.7206 63.0076 67.4011 63.0076L67.3978 63.0109Z" fill="#3A3A3A"/>
<path d="M35.8263 59.8088H30.7635C29.4732 59.8088 28.4272 60.8276 28.4272 62.0844C28.4272 63.3411 29.4732 64.3599 30.7635 64.3599H35.8263C37.1166 64.3599 38.1625 63.3411 38.1625 62.0844C38.1625 60.8276 37.1166 59.8088 35.8263 59.8088Z" fill="#F0A6CA"/>
<path d="M35.8232 65.9853H30.7603C28.5509 65.9853 26.7554 64.2364 26.7554 62.0844C26.7554 59.9324 28.5509 58.1835 30.7603 58.1835H35.8232C38.0326 58.1835 39.8281 59.9324 39.8281 62.0844C39.8281 64.2364 38.0326 65.9853 35.8232 65.9853ZM30.7636 61.4343C30.3965 61.4343 30.0961 61.7268 30.0961 62.0844C30.0961 62.442 30.3965 62.7346 30.7636 62.7346H35.8265C36.1936 62.7346 36.494 62.442 36.494 62.0844C36.494 61.7268 36.1936 61.4343 35.8265 61.4343H30.7636Z" fill="#F0A6CA"/>
<path d="M102.24 59.8088H97.1768C95.8865 59.8088 94.8406 60.8276 94.8406 62.0844C94.8406 63.3411 95.8865 64.3599 97.1768 64.3599H102.24C103.53 64.3599 104.576 63.3411 104.576 62.0844C104.576 60.8276 103.53 59.8088 102.24 59.8088Z" fill="#F0A6CA"/>
<path d="M102.236 65.9853H97.1734C94.964 65.9853 93.1685 64.2364 93.1685 62.0844C93.1685 59.9324 94.964 58.1835 97.1734 58.1835H102.236C104.446 58.1835 106.241 59.9324 106.241 62.0844C106.241 64.2364 104.446 65.9853 102.236 65.9853ZM97.1767 61.4343C96.8096 61.4343 96.5092 61.7268 96.5092 62.0844C96.5092 62.442 96.8096 62.7346 97.1767 62.7346H102.24C102.607 62.7346 102.907 62.442 102.907 62.0844C102.907 61.7268 102.607 61.4343 102.24 61.4343H97.1767Z" fill="#F0A6CA"/>
<path d="M43.1386 56.721C47.4702 56.721 50.9816 53.3008 50.9816 49.0817C50.9816 44.8626 47.4702 41.4424 43.1386 41.4424C38.8071 41.4424 35.2957 44.8626 35.2957 49.0817C35.2957 53.3008 38.8071 56.721 43.1386 56.721Z" fill="#3A3A3A"/>
<path d="M43.1385 56.8837C38.7231 56.8837 35.1287 53.3826 35.1287 49.0818C35.1287 44.781 38.7231 41.2799 43.1385 41.2799C47.5539 41.2799 51.1483 44.781 51.1483 49.0818C51.1483 53.3826 47.5539 56.8837 43.1385 56.8837ZM43.1385 41.605C38.9066 41.605 35.4624 44.9598 35.4624 49.0818C35.4624 53.2038 38.9066 56.5586 43.1385 56.5586C47.3704 56.5586 50.8146 53.2038 50.8146 49.0818C50.8146 44.9598 47.3704 41.605 43.1385 41.605Z" fill="#3A3A3A"/>
<path d="M45.6415 48.4314C46.6553 48.4314 47.4771 47.631 47.4771 46.6435C47.4771 45.6561 46.6553 44.8556 45.6415 44.8556C44.6277 44.8556 43.8059 45.6561 43.8059 46.6435C43.8059 47.631 44.6277 48.4314 45.6415 48.4314Z" fill="white"/>
<path d="M45.6414 48.5941C44.5367 48.5941 43.6389 47.7197 43.6389 46.6436C43.6389 45.5676 44.5367 44.6931 45.6414 44.6931C46.7461 44.6931 47.6439 45.5676 47.6439 46.6436C47.6439 47.7197 46.7461 48.5941 45.6414 48.5941ZM45.6414 45.0182C44.7203 45.0182 43.9727 45.7464 43.9727 46.6436C43.9727 47.5409 44.7203 48.2691 45.6414 48.2691C46.5626 48.2691 47.3102 47.5409 47.3102 46.6436C47.3102 45.7464 46.5626 45.0182 45.6414 45.0182Z" fill="#3A3A3A"/>
<path d="M41.8294 39.6899L50.8912 44.5323C51.6992 44.9641 52.7132 44.6767 53.1561 43.8905C53.5989 43.1043 53.3029 42.1169 52.4949 41.6851L43.433 36.8427C42.625 36.4109 41.611 36.6982 41.1682 37.4845C40.7253 38.2707 41.0214 39.2581 41.8294 39.6899Z" fill="#5E5E5E"/>
<defs>
<clipPath id="clip0_1279_1098">
<rect width="54" height="27" fill="white" transform="translate(40 130)"/>
</clipPath>
</defs>
</svg>
